<svg width="512" height="512" viewBox="0 0 512 512" fill="none" xmlns="http://www.w3.org/2000/svg">
<path d="M101.745 0.165807C100.944 0.365947 96.8412 1.06648 92.7384 1.6669C78.2285 4.06859 61.9173 10.7732 48.308 19.8796C40.5027 25.1834 25.1922 40.4941 19.8886 48.2996C11.0826 61.4088 4.57813 77.0198 1.57608 92.2304C-0.525359 102.638 -0.525359 409.053 1.57608 419.46C11.1826 467.894 49.4088 504.019 98.2422 511.024C107.749 512.325 403.951 512.325 413.458 511.024C438.875 507.422 463.592 494.813 480.604 476.9C496.915 459.588 507.622 437.373 511.024 413.456C512.325 403.949 512.325 107.741 511.024 98.2347C509.323 86.2262 506.121 75.6188 500.918 64.8112C485.707 32.8888 458.789 11.0735 423.965 2.36737C415.459 0.265895 414.659 0.265869 259.352 0.0657286C173.494 -0.0343416 102.545 -0.0343337 101.745 0.165807Z" fill="black"/>
<path d="M148.655 7.50293C177.219 7.49042 216.415 7.51442 259.343 7.56445V7.56543C337.031 7.66555 375.989 7.71608 396.604 8.00293C417.243 8.29011 418.829 8.82263 422.146 9.64258V9.64355C454.84 17.8174 479.918 38.1764 494.146 68.0371L494.16 68.0645C499.019 78.1557 501.997 88.01 503.593 99.252H503.594C503.581 99.1592 503.61 99.4016 503.65 100.288C503.685 101.06 503.721 102.109 503.756 103.435C503.826 106.081 503.891 109.718 503.952 114.22C504.074 123.218 504.175 135.583 504.256 150.203C504.418 179.439 504.5 217.64 504.5 255.846C504.5 294.052 504.418 332.251 504.256 361.487C504.175 376.108 504.074 388.473 503.952 397.471C503.891 401.973 503.826 405.61 503.756 408.256C503.721 409.582 503.685 410.631 503.65 411.402C503.61 412.289 503.581 412.531 503.594 412.438C500.404 434.807 490.388 455.569 475.165 471.735C459.364 488.373 436.225 500.215 412.437 503.594C412.355 503.599 412.051 503.621 411.404 503.65C410.633 503.685 409.583 503.721 408.258 503.756C405.612 503.826 401.975 503.891 397.473 503.952C388.475 504.074 376.11 504.175 361.49 504.256C332.254 504.418 294.055 504.5 255.85 504.5C217.644 504.5 179.446 504.418 150.21 504.256C135.59 504.175 123.226 504.074 114.228 503.952C109.725 503.891 106.089 503.826 103.442 503.756C102.117 503.721 101.068 503.685 100.296 503.65C99.6445 503.621 99.3404 503.599 99.2617 503.594C53.5913 497.024 17.9152 463.289 8.93262 418.001L8.93066 417.988L8.92773 417.976L8.86719 417.115C8.82419 416.468 8.76321 415.424 8.7002 413.879C8.58825 411.133 8.48289 407.36 8.38477 402.681C8.18872 393.332 8.0248 380.504 7.89355 365.339C7.63113 335.015 7.5 295.436 7.5 255.846C7.5 216.256 7.63113 176.675 7.89355 146.352C8.0248 131.186 8.18872 118.359 8.38477 109.01C8.48289 104.331 8.58825 100.557 8.7002 97.8115C8.82618 94.7218 8.94321 93.6383 8.92773 93.7148L8.93066 93.6992L8.93457 93.6826C11.7381 79.4779 17.842 64.8058 26.0918 52.5146C28.3329 49.2163 33.0769 43.8421 38.4639 38.4551C43.842 33.0768 49.2072 28.3394 52.5068 26.0938C65.3208 17.5254 80.6137 11.2815 93.9307 9.07129C97.21 8.59004 100.826 7.99656 102.668 7.63281C102.721 7.63168 102.78 7.63011 102.844 7.62891C103.39 7.61866 104.205 7.60903 105.29 7.59961C107.454 7.58083 110.61 7.56504 114.659 7.55176C122.754 7.52521 134.372 7.50918 148.655 7.50293Z" stroke="white" stroke-width="15"/>
<path d="M391.043 167.065C397.343 171.565 399.943 183.165 395.943 189.465C392.043 195.765 307.743 290.965 304.643 292.665C302.743 293.665 299.243 294.365 296.343 294.265C291.743 294.265 288.643 292.665 255.143 273.565C235.143 262.265 218.543 252.965 218.143 252.965C217.643 253.065 203.443 271.765 186.343 294.565C169.343 317.465 153.943 337.265 152.143 338.665C143.243 345.565 129.443 341.365 125.243 330.465C121.743 321.165 120.943 322.365 163.143 266.365C189.243 231.665 202.443 214.865 204.643 213.565C206.843 212.365 209.943 211.665 213.343 211.665C218.443 211.665 220.243 212.565 255.443 232.765C285.443 249.965 292.543 253.665 293.743 252.665C294.543 251.965 311.743 232.565 331.943 209.365C352.143 186.265 369.843 166.765 371.143 166.065C377.343 162.765 385.543 163.165 391.043 167.065Z" fill="white"/>
</svg>
