<svg width="422" height="50" viewBox="0 0 422 50" fill="none" xmlns="http://www.w3.org/2000/svg">
<path d="M9.93599 0.0161921C9.85781 0.035737 9.45715 0.104148 9.05648 0.162783C7.6395 0.397323 6.04661 1.05207 4.71758 1.94137C3.95534 2.45931 2.46018 3.9545 1.94224 4.71675C1.08228 5.99695 0.447083 7.52146 0.153914 9.00688C-0.0513046 10.0232 -0.0513046 39.9466 0.153914 40.9629C1.09206 45.6928 4.82508 49.2206 9.59396 49.9047C10.5223 50.0318 39.4484 50.0318 40.3767 49.9047C42.8589 49.5529 45.2726 48.3216 46.9339 46.5723C48.5268 44.8817 49.5725 42.7122 49.9047 40.3765C50.0318 39.4482 50.0318 10.5216 49.9047 9.59323C49.7386 8.42053 49.4259 7.38465 48.9177 6.32922C47.4323 3.2118 44.8036 1.08139 41.4028 0.231188C40.5722 0.0259663 40.494 0.0259638 25.3274 0.00641881C16.9427 -0.00335367 10.0142 -0.0033529 9.93599 0.0161921Z" fill="black"/>
<path d="M25.3268 0.00642149C40.491 0.0259634 40.5717 0.0259041 41.402 0.231031C44.8027 1.08124 47.4322 3.21126 48.9176 6.32869C49.4257 7.38396 49.7378 8.41987 49.9039 9.59236C50.031 10.5207 50.031 39.4482 49.9039 40.3765L49.8336 40.8121C49.4391 42.9811 48.4265 44.9869 46.9332 46.5718L46.6139 46.8941C44.9708 48.472 42.7035 49.574 40.3766 49.9039L40.2086 49.9156C37.7469 50.0272 12.2231 50.0272 9.76134 49.9156L9.59337 49.9039C4.82463 49.2197 1.09206 45.6922 0.153914 40.9625C-0.0513046 39.9461 -0.0513046 10.0228 0.153914 9.00642C0.41044 7.70674 0.928818 6.37729 1.63048 5.20759L1.942 4.71638C2.45995 3.95412 3.95516 2.45893 4.71739 1.94099C6.0464 1.05174 7.63931 0.397204 9.05626 0.162671C9.45601 0.104168 9.85577 0.0358994 9.93516 0.0161871C10.0133 -0.00335768 16.9422 -0.00335073 25.3268 0.00642149ZM11.1979 1.00447C10.8025 1.00576 10.4943 1.00752 10.2838 1.00935C10.1786 1.01027 10.1003 1.01131 10.0484 1.01228C10.0441 1.01236 10.0395 1.0122 10.0357 1.01228C9.83733 1.04995 9.51029 1.10621 9.21934 1.149L8.98106 1.19294C7.77965 1.43275 6.42631 2.00149 5.27891 2.76814L5.0172 2.96443C4.72237 3.20126 4.33724 3.55161 3.94493 3.94392C3.4219 4.46695 2.97348 4.97732 2.76915 5.27791C1.98326 6.44904 1.40113 7.84842 1.13438 9.19978L1.13341 9.20466C1.14016 9.17122 1.1295 9.25087 1.1168 9.56209C1.10598 9.82759 1.09512 10.1947 1.08555 10.651C1.06645 11.5623 1.05052 12.814 1.0377 14.2945C1.01209 17.2547 0.999617 21.1194 0.999617 24.9849C0.999618 28.8503 1.01209 32.7143 1.0377 35.6744C1.05051 37.1548 1.06645 38.4066 1.08555 39.3179C1.09512 39.7742 1.10598 40.1413 1.1168 40.4068L1.13341 40.7642L1.13438 40.7681L1.22227 41.1685C2.20267 45.2764 5.51846 48.3073 9.73009 48.9136C9.74417 48.9141 9.85138 48.9205 10.108 48.9273C10.3647 48.9341 10.7188 48.9399 11.1578 48.9459C12.0355 48.9577 13.243 48.9682 14.6705 48.9761C17.5248 48.992 21.2545 48.9996 24.985 48.9996C28.7155 48.9996 32.4451 48.992 35.2994 48.9761C36.7269 48.9682 37.9345 48.9577 38.8121 48.9459C39.2512 48.9399 39.6053 48.9341 39.8619 48.9273L40.2408 48.9136C42.5056 48.5915 44.7089 47.4625 46.2086 45.8834C47.6563 44.3456 48.6087 42.3698 48.9127 40.2408C48.9127 40.2331 48.9203 40.1272 48.9274 39.8609C48.9341 39.6042 48.94 39.2502 48.9459 38.8111C48.9578 37.9335 48.9682 36.7268 48.9762 35.2994C48.992 32.4451 48.9996 28.7155 48.9996 24.9849C48.9996 21.2542 48.992 17.5239 48.9762 14.6695C48.9682 13.2421 48.9578 12.0354 48.9459 11.1578C48.94 10.7187 48.9341 10.3647 48.9274 10.108C48.9198 9.82083 48.9125 9.72025 48.9137 9.7281V9.72712C48.7616 8.65716 48.4782 7.72183 48.0162 6.76228L48.0143 6.75935C46.6602 3.9176 44.2783 1.98043 41.1627 1.20076V1.20173C40.8704 1.12951 40.7467 1.07652 38.7272 1.04841C37.7217 1.03442 36.2681 1.02604 34.1178 1.02009L25.3258 1.00642C21.1339 1.00154 17.3064 0.998365 14.5172 0.999586C13.1225 1.0002 11.988 1.00188 11.1979 1.00447Z" fill="white"/>
<path d="M38.1875 16.315C38.8028 16.7544 39.0567 17.8873 38.6661 18.5025C38.2852 19.1177 30.0528 28.4146 29.75 28.5806C29.5645 28.6783 29.2227 28.7466 28.9395 28.7369C28.4903 28.7369 28.1875 28.5806 24.9161 26.7154C22.9629 25.6119 21.3418 24.7037 21.3028 24.7037C21.2539 24.7134 19.8672 26.5396 18.1973 28.7662C16.5372 31.0025 15.0332 32.9361 14.8575 33.0728C13.9883 33.7466 12.6407 33.3365 12.2305 32.272C11.8887 31.3638 11.8106 31.481 15.9317 26.0123C18.4805 22.6236 19.7696 20.983 19.9844 20.856C20.1993 20.7388 20.502 20.6705 20.834 20.6705C21.3321 20.6705 21.5079 20.7584 24.9454 22.731C27.875 24.4107 28.5684 24.772 28.6856 24.6744C28.7637 24.606 30.4434 22.7115 32.4161 20.4459C34.3887 18.19 36.1172 16.2857 36.2442 16.2173C36.8496 15.8951 37.6504 15.9341 38.1875 16.315Z" fill="white"/>
<path d="M93.616 20.96C93.616 22.3253 93.296 23.5733 92.656 24.704C92.0373 25.8133 91.088 26.7093 89.808 27.392C88.5493 28.0533 87.0027 28.384 85.168 28.384H82.064V36H75.792V13.44H85.168C86.9813 13.44 88.5173 13.76 89.776 14.4C91.056 15.04 92.016 15.9253 92.656 17.056C93.296 18.1867 93.616 19.488 93.616 20.96ZM84.56 23.392C86.3307 23.392 87.216 22.5813 87.216 20.96C87.216 19.3173 86.3307 18.496 84.56 18.496H82.064V23.392H84.56ZM114.504 18.048V36H108.2V33.44C107.666 34.2507 106.93 34.912 105.992 35.424C105.053 35.9147 103.976 36.16 102.76 36.16C100.669 36.16 99.0158 35.4773 97.7998 34.112C96.6051 32.7253 96.0078 30.848 96.0078 28.48V18.048H102.248V27.68C102.248 28.704 102.514 29.5147 103.048 30.112C103.602 30.688 104.328 30.976 105.224 30.976C106.141 30.976 106.866 30.688 107.4 30.112C107.933 29.5147 108.2 28.704 108.2 27.68V18.048H114.504ZM124.345 12.32V36H118.073V12.32H124.345ZM135.565 36.224C133.944 36.224 132.493 35.9573 131.213 35.424C129.954 34.8693 128.952 34.1227 128.205 33.184C127.48 32.224 127.074 31.1467 126.989 29.952H133.069C133.154 30.528 133.421 30.976 133.869 31.296C134.317 31.616 134.872 31.776 135.533 31.776C136.045 31.776 136.45 31.6693 136.749 31.456C137.048 31.2427 137.197 30.9653 137.197 30.624C137.197 30.176 136.952 29.8453 136.461 29.632C135.97 29.4187 135.16 29.184 134.029 28.928C132.749 28.672 131.682 28.384 130.829 28.064C129.976 27.744 129.229 27.2213 128.589 26.496C127.97 25.7707 127.661 24.7893 127.661 23.552C127.661 22.4853 127.949 21.5253 128.525 20.672C129.101 19.7973 129.944 19.104 131.053 18.592C132.184 18.08 133.538 17.824 135.117 17.824C137.464 17.824 139.309 18.4 140.653 19.552C141.997 20.704 142.776 22.2187 142.989 24.096H137.325C137.218 23.52 136.962 23.0827 136.557 22.784C136.173 22.464 135.65 22.304 134.989 22.304C134.477 22.304 134.082 22.4 133.805 22.592C133.549 22.784 133.421 23.0507 133.421 23.392C133.421 23.8187 133.666 24.1493 134.157 24.384C134.648 24.5973 135.437 24.8213 136.525 25.056C137.826 25.3333 138.904 25.6427 139.757 25.984C140.632 26.3253 141.389 26.88 142.029 27.648C142.69 28.3947 143.021 29.4187 143.021 30.72C143.021 31.7653 142.712 32.704 142.093 33.536C141.496 34.368 140.632 35.0293 139.501 35.52C138.392 35.9893 137.08 36.224 135.565 36.224ZM165.433 18.048L154.041 44.544H147.225L151.513 35.232L144.152 18.048H151.129L154.905 28.224L158.553 18.048H165.433ZM180.814 13.696C183.246 13.696 185.348 14.1547 187.118 15.072C188.91 15.968 190.276 17.2587 191.214 18.944C192.174 20.6293 192.654 22.6133 192.654 24.896C192.654 27.1787 192.174 29.1627 191.214 30.848C190.276 32.512 188.91 33.792 187.118 34.688C185.348 35.5627 183.246 36 180.814 36H173.87V13.696H180.814ZM180.814 33.6C183.694 33.6 185.892 32.8427 187.406 31.328C188.921 29.792 189.678 27.648 189.678 24.896C189.678 22.1227 188.91 19.9573 187.374 18.4C185.86 16.8427 183.673 16.064 180.814 16.064H176.782V33.6H180.814ZM204.143 36.288C202.501 36.288 201.007 35.9147 199.663 35.168C198.341 34.4213 197.295 33.3653 196.527 32C195.781 30.6133 195.407 29.0133 195.407 27.2C195.407 25.408 195.791 23.8293 196.559 22.464C197.349 21.0773 198.415 20.0213 199.759 19.296C201.103 18.5493 202.607 18.176 204.271 18.176C205.935 18.176 207.439 18.5493 208.783 19.296C210.127 20.0213 211.183 21.0667 211.951 22.432C212.741 23.7973 213.135 25.3867 213.135 27.2C213.135 29.0133 212.73 30.6133 211.919 32C211.13 33.3653 210.053 34.4213 208.687 35.168C207.322 35.9147 205.807 36.288 204.143 36.288ZM204.143 33.728C205.189 33.728 206.17 33.4827 207.087 32.992C208.005 32.5013 208.741 31.7653 209.295 30.784C209.871 29.8027 210.159 28.608 210.159 27.2C210.159 25.792 209.882 24.5973 209.327 23.616C208.773 22.6347 208.047 21.9093 207.151 21.44C206.255 20.9493 205.285 20.704 204.239 20.704C203.173 20.704 202.191 20.9493 201.295 21.44C200.421 21.9093 199.717 22.6347 199.183 23.616C198.65 24.5973 198.383 25.792 198.383 27.2C198.383 28.6293 198.639 29.8347 199.151 30.816C199.685 31.7973 200.389 32.5333 201.263 33.024C202.138 33.4933 203.098 33.728 204.143 33.728ZM215.876 27.2C215.876 25.3867 216.239 23.808 216.964 22.464C217.689 21.0987 218.692 20.0427 219.972 19.296C221.273 18.5493 222.756 18.176 224.42 18.176C226.575 18.176 228.345 18.6987 229.732 19.744C231.14 20.7893 232.068 22.24 232.516 24.096H229.38C229.081 23.0293 228.495 22.1867 227.62 21.568C226.767 20.9493 225.7 20.64 224.42 20.64C222.756 20.64 221.412 21.216 220.388 22.368C219.364 23.4987 218.852 25.1093 218.852 27.2C218.852 29.312 219.364 30.944 220.388 32.096C221.412 33.248 222.756 33.824 224.42 33.824C225.7 33.824 226.767 33.5253 227.62 32.928C228.473 32.3307 229.06 31.4773 229.38 30.368H232.516C232.047 32.16 231.108 33.6 229.7 34.688C228.292 35.7547 226.532 36.288 224.42 36.288C222.756 36.288 221.273 35.9147 219.972 35.168C218.692 34.4213 217.689 33.3653 216.964 32C216.239 30.6347 215.876 29.0347 215.876 27.2ZM251.954 18.464V36H249.042V33.408C248.487 34.304 247.708 35.008 246.706 35.52C245.724 36.0107 244.636 36.256 243.442 36.256C242.076 36.256 240.85 35.9787 239.762 35.424C238.674 34.848 237.81 33.9947 237.17 32.864C236.551 31.7333 236.242 30.3573 236.242 28.736V18.464H239.122V28.352C239.122 30.08 239.559 31.4133 240.434 32.352C241.308 33.2693 242.503 33.728 244.018 33.728C245.575 33.728 246.802 33.248 247.698 32.288C248.594 31.328 249.042 29.9307 249.042 28.096V18.464H251.954ZM277.958 18.144C279.324 18.144 280.54 18.432 281.606 19.008C282.673 19.5627 283.516 20.4053 284.134 21.536C284.753 22.6667 285.062 24.0427 285.062 25.664V36H282.182V26.08C282.182 24.3307 281.745 22.9973 280.87 22.08C280.017 21.1413 278.854 20.672 277.382 20.672C275.868 20.672 274.662 21.1627 273.766 22.144C272.87 23.104 272.422 24.5013 272.422 26.336V36H269.542V26.08C269.542 24.3307 269.105 22.9973 268.23 22.08C267.377 21.1413 266.214 20.672 264.742 20.672C263.228 20.672 262.022 21.1627 261.126 22.144C260.23 23.104 259.782 24.5013 259.782 26.336V36H256.87V18.464H259.782V20.992C260.358 20.0747 261.126 19.3707 262.086 18.88C263.068 18.3893 264.145 18.144 265.318 18.144C266.79 18.144 268.092 18.4747 269.222 19.136C270.353 19.7973 271.196 20.768 271.75 22.048C272.241 20.8107 273.052 19.8507 274.182 19.168C275.313 18.4853 276.572 18.144 277.958 18.144ZM305.839 26.56C305.839 27.1147 305.807 27.7013 305.743 28.32H291.727C291.834 30.048 292.42 31.4027 293.487 32.384C294.575 33.344 295.887 33.824 297.423 33.824C298.682 33.824 299.727 33.536 300.559 32.96C301.412 32.3627 302.01 31.5733 302.351 30.592H305.487C305.018 32.2773 304.079 33.6533 302.671 34.72C301.263 35.7653 299.514 36.288 297.423 36.288C295.759 36.288 294.266 35.9147 292.943 35.168C291.642 34.4213 290.618 33.3653 289.871 32C289.124 30.6133 288.751 29.0133 288.751 27.2C288.751 25.3867 289.114 23.7973 289.839 22.432C290.564 21.0667 291.578 20.0213 292.879 19.296C294.202 18.5493 295.716 18.176 297.423 18.176C299.087 18.176 300.559 18.5387 301.839 19.264C303.119 19.9893 304.1 20.992 304.783 22.272C305.487 23.5307 305.839 24.96 305.839 26.56ZM302.831 25.952C302.831 24.8427 302.586 23.8933 302.095 23.104C301.604 22.2933 300.932 21.6853 300.079 21.28C299.247 20.8533 298.319 20.64 297.295 20.64C295.823 20.64 294.564 21.1093 293.519 22.048C292.495 22.9867 291.908 24.288 291.759 25.952H302.831ZM318.227 18.144C320.36 18.144 322.088 18.7947 323.411 20.096C324.733 21.376 325.395 23.232 325.395 25.664V36H322.515V26.08C322.515 24.3307 322.077 22.9973 321.203 22.08C320.328 21.1413 319.133 20.672 317.619 20.672C316.083 20.672 314.856 21.152 313.939 22.112C313.043 23.072 312.595 24.4693 312.595 26.304V36H309.683V18.464H312.595V20.96C313.171 20.064 313.949 19.3707 314.931 18.88C315.933 18.3893 317.032 18.144 318.227 18.144ZM333.704 20.864V31.2C333.704 32.0533 333.885 32.6613 334.248 33.024C334.61 33.3653 335.24 33.536 336.135 33.536H338.28V36H335.656C334.034 36 332.818 35.6267 332.008 34.88C331.197 34.1333 330.792 32.9067 330.792 31.2V20.864H328.52V18.464H330.792V14.048H333.704V18.464H338.28V20.864H333.704ZM340.72 27.168C340.72 25.376 341.082 23.808 341.808 22.464C342.533 21.0987 343.525 20.0427 344.784 19.296C346.064 18.5493 347.482 18.176 349.04 18.176C350.576 18.176 351.909 18.5067 353.04 19.168C354.17 19.8293 355.013 20.6613 355.568 21.664V18.464H358.512V36H355.568V32.736C354.992 33.76 354.128 34.6133 352.976 35.296C351.845 35.9573 350.522 36.288 349.008 36.288C347.45 36.288 346.042 35.904 344.784 35.136C343.525 34.368 342.533 33.2907 341.808 31.904C341.082 30.5173 340.72 28.9387 340.72 27.168ZM355.568 27.2C355.568 25.8773 355.301 24.7253 354.768 23.744C354.234 22.7627 353.509 22.016 352.592 21.504C351.696 20.9707 350.704 20.704 349.616 20.704C348.528 20.704 347.536 20.96 346.64 21.472C345.744 21.984 345.029 22.7307 344.496 23.712C343.962 24.6933 343.696 25.8453 343.696 27.168C343.696 28.512 343.962 29.6853 344.496 30.688C345.029 31.6693 345.744 32.4267 346.64 32.96C347.536 33.472 348.528 33.728 349.616 33.728C350.704 33.728 351.696 33.472 352.592 32.96C353.509 32.4267 354.234 31.6693 354.768 30.688C355.301 29.6853 355.568 28.5227 355.568 27.2ZM366.985 20.864V31.2C366.985 32.0533 367.166 32.6613 367.529 33.024C367.891 33.3653 368.521 33.536 369.417 33.536H371.561V36H368.937C367.315 36 366.099 35.6267 365.289 34.88C364.478 34.1333 364.073 32.9067 364.073 31.2V20.864H361.801V18.464H364.073V14.048H366.985V18.464H371.561V20.864H366.985ZM376.593 15.616C376.038 15.616 375.569 15.424 375.185 15.04C374.801 14.656 374.609 14.1867 374.609 13.632C374.609 13.0773 374.801 12.608 375.185 12.224C375.569 11.84 376.038 11.648 376.593 11.648C377.126 11.648 377.574 11.84 377.937 12.224C378.321 12.608 378.513 13.0773 378.513 13.632C378.513 14.1867 378.321 14.656 377.937 15.04C377.574 15.424 377.126 15.616 376.593 15.616ZM378.001 18.464V36H375.089V18.464H378.001ZM390.612 36.288C388.969 36.288 387.476 35.9147 386.132 35.168C384.809 34.4213 383.764 33.3653 382.996 32C382.249 30.6133 381.876 29.0133 381.876 27.2C381.876 25.408 382.26 23.8293 383.028 22.464C383.817 21.0773 384.884 20.0213 386.228 19.296C387.572 18.5493 389.076 18.176 390.74 18.176C392.404 18.176 393.908 18.5493 395.252 19.296C396.596 20.0213 397.652 21.0667 398.42 22.432C399.209 23.7973 399.604 25.3867 399.604 27.2C399.604 29.0133 399.199 30.6133 398.388 32C397.599 33.3653 396.521 34.4213 395.156 35.168C393.791 35.9147 392.276 36.288 390.612 36.288ZM390.612 33.728C391.657 33.728 392.639 33.4827 393.556 32.992C394.473 32.5013 395.209 31.7653 395.764 30.784C396.34 29.8027 396.628 28.608 396.628 27.2C396.628 25.792 396.351 24.5973 395.796 23.616C395.241 22.6347 394.516 21.9093 393.62 21.44C392.724 20.9493 391.753 20.704 390.708 20.704C389.641 20.704 388.66 20.9493 387.764 21.44C386.889 21.9093 386.185 22.6347 385.652 23.616C385.119 24.5973 384.852 25.792 384.852 27.2C384.852 28.6293 385.108 29.8347 385.62 30.816C386.153 31.7973 386.857 32.5333 387.732 33.024C388.607 33.4933 389.567 33.728 390.612 33.728ZM411.977 18.144C414.11 18.144 415.838 18.7947 417.161 20.096C418.483 21.376 419.145 23.232 419.145 25.664V36H416.265V26.08C416.265 24.3307 415.827 22.9973 414.953 22.08C414.078 21.1413 412.883 20.672 411.369 20.672C409.833 20.672 408.606 21.152 407.689 22.112C406.793 23.072 406.345 24.4693 406.345 26.304V36H403.433V18.464H406.345V20.96C406.921 20.064 407.699 19.3707 408.681 18.88C409.683 18.3893 410.782 18.144 411.977 18.144Z" fill="white"/>
</svg>
